name C:\Users\antoi\Documents\MyRepositories\upper-imu-dc\Results\main_tracking\Case_92\kinematics.mot
datacolumns 43
datarows 9
range 5.26000000 5.42000000
endheader 
time	clav_prot	clav_elev	scapula_abduction	scapula_elevation	scapula_upward_rot	scapula_winging	plane_elv	shoulder_elv	axial_rot	TrapeziusScapula_M/activation	TrapeziusScapula_S/activation	TrapeziusScapula_I/activation	TrapeziusClavicle_S/activation	SerratusAnterior_I/activation	SerratusAnterior_M/activation	SerratusAnterior_S/activation	Rhomboideus_S/activation	Rhomboideus_I/activation	LevatorScapulae/activation	Coracobrachialis/activation	DeltoideusClavicle_A/activation	DeltoideusScapula_P/activation	DeltoideusScapula_M/activation	LatissimusDorsi_S/activation	LatissimusDorsi_M/activation	LatissimusDorsi_I/activation	PectoralisMajorClavicle_S/activation	PectoralisMajorThorax_I/activation	PectoralisMajorThorax_M/activation	TeresMajor/activation	Infraspinatus_I/activation	Infraspinatus_S/activation	PectoralisMinor/activation	TeresMinor/activation	Subscapularis_S/activation	Subscapularis_M/activation	Subscapularis_I/activation	Supraspinatus_P/activation	Supraspinatus_A/activation	TRIlong/activation	BIC_long/activation	BIC_brevis/activation	
          5.26000000	        -39.45111203	          2.66512094	        -15.70110195	         -6.55975327	         50.54853274	         -8.20681075	         13.33698334	         78.92794399	          5.57636707	          0.04955473	          0.13541311	          0.02995132	          0.03271147	          0.11262820	          0.14019687	          0.01071762	          0.01083477	          0.01047636	          0.01063457	          0.01180234	          0.10454455	          0.01054297	          0.18649201	          0.01043259	          0.01020353	          0.01021823	          0.01395765	          0.01019796	          0.01055240	          0.01042536	          0.04210460	          0.04931874	          0.01035210	          0.01239940	          0.01147185	          0.01094402	          0.01065495	          0.02869501	          0.03302017	          0.01018705	          0.03831321	          0.01372322	
          5.28000000	        -39.56885437	          2.72856966	        -15.64068911	         -6.54698736	         50.88721598	         -8.31788889	         13.71635452	         79.14719807	          5.27304226	          0.05015077	          0.13654913	          0.03022602	          0.03295330	          0.11349713	          0.14240489	          0.01070621	          0.01082164	          0.01047139	          0.01062357	          0.01186169	          0.10674625	          0.01052611	          0.18726486	          0.01042742	          0.01020090	          0.01021530	          0.01411315	          0.01019667	          0.01055353	          0.01042087	          0.04259174	          0.04974467	          0.01035048	          0.01236654	          0.01147809	          0.01093880	          0.01064702	          0.02918600	          0.03388850	          0.01018460	          0.03901385	          0.01390261	
          5.30000000	        -39.68661461	          2.78832827	        -15.58490204	         -6.53567667	         51.21848647	         -8.42637041	         14.09495756	         79.36332801	          4.94750382	          0.05084970	          0.13777157	          0.03060413	          0.03318665	          0.11455542	          0.14467936	          0.01069318	          0.01080682	          0.01046546	          0.01061087	          0.01194912	          0.10910043	          0.01050842	          0.18824640	          0.01042244	          0.01019827	          0.01021230	          0.01428909	          0.01019525	          0.01055458	          0.01041586	          0.04310125	          0.05019338	          0.01034864	          0.01232599	          0.01148874	          0.01093376	          0.01063890	          0.02971980	          0.03483295	          0.01018184	          0.03977644	          0.01411356	
          5.32000000	        -39.80539936	          2.84387308	        -15.53411266	         -6.52638362	         51.54373782	         -8.53268226	         14.47373712	         79.57794740	          4.60634375	          0.05161512	          0.13906882	          0.03103340	          0.03342030	          0.11573879	          0.14703644	          0.01067914	          0.01079120	          0.01045899	          0.01059738	          0.01205613	          0.11168961	          0.01048898	          0.18933144	          0.01041742	          0.01019557	          0.01020919	          0.01449965	          0.01019373	          0.01055602	          0.01041020	          0.04358104	          0.05061188	          0.01034651	          0.01227293	          0.01152514	          0.01092987	          0.01063105	          0.03031797	          0.03592610	          0.01017868	          0.04065271	          0.01437527	
          5.34000000	        -39.92601208	          2.89518763	        -15.48848564	         -6.51929332	         51.86439414	         -8.63736471	         14.85378983	         79.79296141	          4.25747845	          0.05241642	          0.14042038	          0.03146657	          0.03365664	          0.11696274	          0.14943601	          0.01066474	          0.01077573	          0.01045255	          0.01058402	          0.01217330	          0.11446478	          0.01046885	          0.19042105	          0.01041228	          0.01019280	          0.01020601	          0.01474692	          0.01019216	          0.01055784	          0.01040422	          0.04398069	          0.05096300	          0.01034411	          0.01220985	          0.01157729	          0.01092764	          0.01062387	          0.03096825	          0.03715015	          0.01017531	          0.04162036	          0.01469459	
          5.36000000	        -40.04897145	          2.94276472	        -15.44806957	         -6.51419082	         52.18163001	         -8.74100784	         15.23643655	         80.01028265	          3.91016212	          0.05321785	          0.14178981	          0.03185516	          0.03389456	          0.11812611	          0.15181030	          0.01065069	          0.01076145	          0.01044665	          0.01057167	          0.01230904	          0.11729901	          0.01044880	          0.19140988	          0.01040699	          0.01018999	          0.01020280	          0.01503033	          0.01019058	          0.01056014	          0.01039820	          0.04426669	          0.05122875	          0.01034151	          0.01214796	          0.01164912	          0.01092743	          0.01061767	          0.03164187	          0.03844065	          0.01017187	          0.04262074	          0.01507578	
          5.38000000	        -40.17449722	          2.98744305	        -15.41280411	         -6.51057148	         52.49627502	         -8.84416918	         15.62306786	         80.23141071	          3.57418001	          0.05398289	          0.14312975	          0.03215956	          0.03412994	          0.11912799	          0.15408973	          0.01063767	          0.01074919	          0.01044166	          0.01056100	          0.01246569	          0.12007024	          0.01043004	          0.19218085	          0.01040161	          0.01018719	          0.01019964	          0.01534132	          0.01018905	          0.01056279	          0.01039260	          0.04441608	          0.05139470	          0.01033884	          0.01209816	          0.01171415	          0.01092884	          0.01061273	          0.03230160	          0.03971508	          0.01016863	          0.04358471	          0.01551254	
          5.40000000	        -40.30253407	          3.03015623	        -15.38254737	         -6.50781653	         52.80873812	         -8.94727643	         16.01495950	         80.45709599	          3.25850686	          0.05469283	          0.14439519	          0.03236756	          0.03435525	          0.11991192	          0.15620609	          0.01062583	          0.01073899	          0.01043773	          0.01055208	          0.01263871	          0.12263530	          0.01041334	          0.19267717	          0.01039633	          0.01018450	          0.01019662	          0.01566756	          0.01018765	          0.01056571	          0.01038773	          0.04444114	          0.05148475	          0.01033629	          0.01202104	          0.01176580	          0.01093244	          0.01060926	          0.03291032	          0.04087533	          0.01016578	          0.04443824	          0.01599095	
          5.42000000	        -40.43281551	          3.07165402	        -15.35713016	         -6.50539301	         53.11896909	         -9.05054180	         16.41315622	         80.68719222	          2.97020430	          0.05533179	          0.14555540	          0.03247704	          0.03456948	          0.12046545	          0.15815837	          0.01061521	          0.01073051	          0.01043474	          0.01054471	          0.01282963	          0.12499680	          0.01039851	          0.19287788	          0.01039125	          0.01018197	          0.01019380	          0.01600864	          0.01018644	          0.01056900	          0.01038359	          0.04435632	          0.05151068	          0.01033399	          0.01189850	          0.01180347	          0.01093792	          0.01060729	          0.03346628	          0.04191598	          0.01016328	          0.04518122	          0.01650953	
